<svg width="91px" height="77px" viewBox="0 0 91 77" version="1.1" xmlns="http://www.w3.org/2000/svg" xmlns:xlink="http://www.w3.org/1999/xlink">
    <g id="Page-1" stroke="none" stroke-width="1" fill="none" fill-rule="evenodd">
        <g id="sweet_two">
            <path d="M77.7427,29.9891 L76.854,27.1582 C77.0199,27.1939 77.1839,27.1713 77.3681,27.0879 C80.3559,25.7049 84.9605,25.8845 86.3427,29.5158 C87.4393,32.3552 85.5124,35.3982 82.7453,36.0909 C82.7063,36.1042 82.6648,36.0953 82.6258,36.1086 C82.4702,36.1258 82.3502,36.1795 82.241,36.2501 C82.2242,36.261 82.2128,36.2802 82.1876,36.2965 C81.7024,36.6696 81.7657,37.486 82.489,37.721 C84.1762,38.2499 87.6562,38.7158 88.3524,40.6591 C89.0747,42.7164 87.863,44.6186 86.1508,45.4512 C85.0867,45.9602 84.0598,46.1952 82.871,46.3085 C78.946,46.7017 75.0258,45.7941 71.4047,44.336 C71.4134,42.9493 71.2918,41.5634 71.0674,40.1844 C72.2448,40.0903 73.4168,39.9878 74.646,40.1579 C76.6667,40.4475 78.5508,41.1707 80.3257,42.1669 C80.7799,42.4092 81.2865,41.7008 80.8442,41.4032 C78.2569,39.6104 74.1983,38.1017 70.7469,38.546 C70.3691,36.8375 69.8382,35.1685 69.1794,33.5225 C72.1903,33.8152 75.6221,32.4191 77.8701,30.7759 C78.2066,30.5228 78.0409,30.0821 77.7427,29.9891 Z" id="Path" fill="#85D0F0"></path>
            <path d="M54.981,16.0276 C56.2378,11.3579 56.0897,5.4171 61.598,3.5127 C64.8008,2.40735 67.8011,4.0285 68.2647,7.4913 C68.6084,10.0315 67.5948,12.8296 66.5943,15.0953 C66.3362,15.6908 66.8036,16.1745 67.2915,16.1926 C67.5539,16.6541 68.1133,16.9117 68.7013,16.5318 C74.8325,12.5697 81.602,19.8396 76.2501,25.3577 C75.6897,25.9461 76.1375,27.0259 76.854,27.1582 L77.7427,29.9891 C77.6321,29.9653 77.521,29.9776 77.398,30.0452 C75.8235,30.9436 74.1415,31.6019 72.3456,31.8813 C71.0362,32.0845 69.7681,31.9277 68.4841,31.9121 C67.6343,30.0443 66.6308,28.2519 65.5177,26.5662 C68.1211,25.2886 70.4108,23.4519 73.1366,22.3453 C73.8395,22.0696 73.5221,20.9889 72.7921,21.2225 C70.0753,22.0851 66.7933,23.2892 64.7706,25.4654 C63.5365,23.703 62.1843,22.0527 60.7688,20.5624 C60.3153,20.0815 59.8419,19.6254 59.3518,19.1802 C62.1248,16.7095 63.426,12.0349 63.7358,8.6082 C63.7761,8.1178 63.0576,7.9272 62.9615,8.4418 C62.5686,10.5054 61.9076,12.5042 60.9104,14.3511 C60.1524,15.7577 59.0736,16.9072 58.176,18.1897 C57.1502,17.3762 56.0899,16.6565 54.981,16.0276 Z" id="Path" fill="#85D0F0"></path>
            <path d="M20.9133,37.947 C21.0611,28.779 26.2459,20.2017 35.8487,16.711 C39.3564,15.4325 42.7114,15.1338 45.8699,15.5811 C43.5736,19.4344 44.9911,25.0549 49.1734,27.0314 C53.0802,28.8764 57.8028,26.8247 59.5924,23.1085 C63.142,26.8512 65.8924,31.5865 67.5582,36.5227 C67.8668,37.4425 68.1033,38.3612 68.2899,39.2765 C67.8453,39.5281 68.0726,40.1194 68.4671,40.2693 C69.1362,44.4922 68.5199,48.6052 66.8731,52.2292 C63.4212,50.1855 58.0454,50.3971 55.9046,54.2331 C54.5297,56.6932 55.0682,60.5481 57.3597,62.2702 C55.719,63.1398 53.9367,63.8272 52.0272,64.2992 C40.4389,67.168 29.6898,60.0409 23.1713,50.9301 C23.1911,50.9054 23.2054,50.8724 23.2252,50.8477 C27.5606,52.0109 31.9483,47.5801 31.3731,43.1893 C31.033,40.5993 28.9985,38.5564 26.6003,37.7011 C24.9472,37.1143 22.4977,36.9351 20.9133,37.947 Z M38.5341,24.4411 C35.5447,22.0628 30.876,22.4842 28.4236,25.4143 C26.2649,27.988 26.571,32.9575 30.2335,33.8531 C32.3659,36.4161 36.439,36.9153 38.9948,34.5137 C41.843,31.8278 41.5729,26.8589 38.5341,24.4411 Z M49.5766,34.9147 C47.686,35.803 44.62,38.3915 45.2058,40.6799 C45.0729,40.8611 45.0169,41.0878 45.1161,41.3333 C46.6033,44.9799 50.3279,47.7404 54.3985,46.6696 C58.2715,45.6433 60.9008,41.5868 59.303,37.7139 C57.582,33.5397 53.2515,33.1948 49.5766,34.9147 Z M44.7918,50.8177 C42.9492,48.3532 39.5386,47.4973 37.0004,49.447 C34.4652,51.3829 33.819,55.0628 35.9253,57.5117 C35.9772,57.5734 36.0403,57.6159 36.1149,57.6392 C36.102,57.7666 36.1305,57.9029 36.212,58.0289 C37.7632,60.5031 41.822,60.0591 43.8794,58.563 C46.4412,56.7051 46.6097,53.2625 44.7918,50.8177 Z" id="Shape" fill="#85D0F0" fill-rule="nonzero"></path>
            <path d="M2.4343,39.6965 C1.99396,36.9331 4.0943,34.5638 6.5652,33.6338 C8.7599,32.8109 11.1363,33.0612 13.2761,33.9406 C15.1099,34.6964 16.4682,36.1166 18.1808,36.9981 C18.1444,37.6051 18.1357,38.218 18.1407,38.8338 C16.8276,38.718 15.514,38.6381 14.2058,38.5667 C12.7119,38.4843 11.0053,38.1465 9.559,38.6168 C9.1801,38.7306 9.077,39.3449 9.4824,39.5116 C10.7898,40.024 12.3066,39.8654 13.6988,39.8826 C15.1907,39.9067 16.6911,39.9254 18.1811,39.8912 C18.2876,41.7512 18.5966,43.6112 19.1339,45.4191 C16.9111,46.8436 14.3561,47.2564 11.7571,46.8642 C11.0845,46.763 10.8825,47.7032 11.5288,47.8927 C14.2964,48.7118 17.143,48.0868 19.4848,46.4782 C19.9458,47.7995 20.5125,49.1002 21.2214,50.3447 C21.6273,51.2492 22.0698,52.1182 22.5681,52.963 C19.8151,53.2537 17.7298,56.8991 17.1742,59.2822 C17.0499,59.8269 17.8548,59.9854 18.0038,59.4605 C18.42,58.0962 19.1447,56.8778 20.174,55.8912 C21.0684,55.0274 22.2297,54.7056 23.1369,53.917 C23.1369,53.917 23.1369,53.917 23.1453,53.9116 C24.6995,56.372 26.6233,58.5935 28.8292,60.478 C27.2973,62.087 26.4769,64.5579 26.2589,66.6157 C26.2037,67.1752 27.0135,67.3781 27.1216,66.8083 C27.3697,65.5525 27.7917,64.3631 28.4675,63.2715 C28.9075,62.5705 29.4481,62.0069 30.0055,61.4323 C31.0342,62.232 32.1277,62.9661 33.2667,63.6231 C32.991,63.6941 32.7554,63.8821 32.687,64.2001 C31.8745,68.4518 30.3014,73.5164 25.4254,74.4646 C19.8179,75.5522 18.6894,69.8997 20.8114,66.0163 C20.9568,65.7437 20.9249,65.4548 20.7837,65.2364 C21.3125,64.7281 20.5021,63.7873 19.9132,64.2393 C15.1955,67.8831 9.1989,62.4357 13.087,57.6371 C13.6939,56.8997 13.0165,55.7777 12.0612,56.0497 C9.2284,56.8802 6.0867,55.6481 5.2301,52.7012 C4.4322,49.9187 5.9344,47.674 8.255,46.1983 C8.9101,45.7749 8.6663,44.7895 8.0679,44.5452 C8.0256,44.2034 7.767,43.8586 7.3591,43.8721 C4.8699,43.9447 2.83186,42.1542 2.4343,39.6965 Z" id="Path" fill="#85D0F0"></path>
            <path d="M1.85367,34.5234 C5.5946,29.7367 14.3295,29.9143 18.4738,34.3561 C19.5416,27.7726 23.1362,21.5802 28.7519,17.5942 C36.0993,12.3819 45.1701,11.5686 52.8467,14.9542 C52.9804,8.5098 56.725,0.17267 64.2033,0.74563 C71.4544,1.29869 70.9481,8.7696 68.8579,13.9183 C75.5026,10.327 82.4151,17.8735 79.575,24.2569 C83.2871,23.8108 87.3507,25.3639 88.3395,29.3446 C89.0218,32.0588 87.8635,34.8909 85.7034,36.3939 C89.857,37.6627 93.1844,42.2038 89.4026,45.9692 C84.9062,50.4345 76.4588,48.5829 71.345,45.7914 C71.1906,48.0582 70.684,50.3143 69.7542,52.4868 C65.7789,61.8303 55.5694,67.9752 45.4871,67.3705 C41.5185,67.1252 37.6819,65.9968 34.2269,64.1694 C34.2372,64.2223 34.256,64.2697 34.2495,64.3334 C33.8982,70.2754 30.117,78.0766 22.8723,76.686 C18.6952,75.8967 16.0345,70.5081 17.9035,66.8595 C13.0574,68.2409 8.4689,63.2407 10.476,58.2766 C3.61665,58.4587 0.06399,49.1101 5.9877,45.306 C1.10561,44.9366 -1.24871,38.4927 1.85367,34.5234 Z M6.5652,33.6338 C4.0943,34.5638 1.99396,36.9331 2.4343,39.6965 C2.83186,42.1542 4.8699,43.9447 7.3591,43.8721 C7.767,43.8586 8.0256,44.2034 8.0679,44.5452 C8.6663,44.7895 8.9101,45.775 8.255,46.1983 C5.9344,47.674 4.4322,49.9187 5.2301,52.7012 C6.0867,55.6481 9.2284,56.8802 12.0612,56.0497 C13.0165,55.7777 13.6939,56.8997 13.087,57.6371 C9.1989,62.4357 15.1955,67.8832 19.9132,64.2393 C20.5021,63.7873 21.3125,64.7281 20.7837,65.2364 C20.9249,65.4548 20.9568,65.7437 20.8114,66.0163 C18.6894,69.8997 19.8179,75.5522 25.4254,74.4646 C30.3014,73.5164 31.8745,68.4518 32.687,64.2001 C32.7554,63.8821 32.991,63.6941 33.2667,63.6231 C32.1277,62.9661 31.0342,62.232 30.0055,61.4323 C29.4481,62.0069 28.9075,62.5705 28.4675,63.2716 C27.7917,64.3631 27.3697,65.5525 27.1215,66.8083 C27.0135,67.3781 26.2037,67.1752 26.2589,66.6157 C26.4769,64.5579 27.2973,62.087 28.8292,60.478 C26.6233,58.5935 24.6995,56.372 23.1453,53.9116 C23.1369,53.917 23.1369,53.917 23.1369,53.917 C22.2297,54.7056 21.0684,55.0274 20.174,55.8912 C19.1447,56.8778 18.42,58.0962 18.0038,59.4605 C17.8548,59.9854 17.0499,59.8269 17.1742,59.2822 C17.7298,56.8991 19.8151,53.2537 22.5681,52.963 C22.0698,52.1182 21.6273,51.2492 21.2214,50.3447 C20.5125,49.1002 19.9458,47.7995 19.4848,46.4782 C17.143,48.0868 14.2964,48.7118 11.5288,47.8927 C10.8825,47.7032 11.0845,46.763 11.7571,46.8642 C14.3561,47.2564 16.9111,46.8436 19.1339,45.4191 C18.5966,43.6113 18.2876,41.7512 18.1811,39.8912 C16.6911,39.9254 15.1907,39.9067 13.6988,39.8826 C12.3066,39.8654 10.7898,40.024 9.4824,39.5116 C9.077,39.3449 9.1801,38.7306 9.559,38.6168 C11.0053,38.1465 12.7119,38.4843 14.2058,38.5667 C15.514,38.6381 16.8276,38.718 18.1407,38.8338 C18.1357,38.218 18.1444,37.6051 18.1808,36.9981 C16.4682,36.1166 15.1099,34.6964 13.2761,33.9406 C11.1363,33.0612 8.7599,32.8109 6.5652,33.6338 Z M35.8488,16.711 C26.2459,20.2017 21.0611,28.779 20.9133,37.947 C22.4977,36.9351 24.9472,37.1143 26.6003,37.7011 C28.9985,38.5564 31.033,40.5993 31.3732,43.1893 C31.9483,47.5801 27.5606,52.0109 23.2252,50.8477 C23.2054,50.8724 23.1911,50.9054 23.1713,50.9301 C29.6898,60.0409 40.4389,67.168 52.0272,64.2992 C53.9368,63.8272 55.719,63.1398 57.3597,62.2702 C55.0682,60.5481 54.5297,56.6932 55.9047,54.2331 C58.0454,50.3971 63.4213,50.1855 66.8731,52.2292 C68.5199,48.6052 69.1363,44.4922 68.4671,40.2692 C68.0726,40.1194 67.8453,39.5281 68.29,39.2765 C68.1033,38.3612 67.8668,37.4425 67.5582,36.5227 C65.8924,31.5865 63.142,26.8512 59.5924,23.1085 C57.8028,26.8247 53.0803,28.8764 49.1734,27.0314 C44.9911,25.0549 43.5736,19.4344 45.87,15.5811 C42.7115,15.1338 39.3565,15.4325 35.8488,16.711 Z M61.598,3.5127 C56.0897,5.4171 56.2377,11.3579 54.981,16.0277 C56.0898,16.6565 57.1502,17.3762 58.176,18.1897 C59.0736,16.9072 60.1524,15.7577 60.9104,14.3511 C61.9076,12.5042 62.5686,10.5054 62.9615,8.4418 C63.0576,7.9272 63.7761,8.1178 63.7358,8.6082 C63.426,12.0349 62.1248,16.7095 59.3518,19.1802 C59.8419,19.6254 60.3153,20.0815 60.7688,20.5624 C62.1843,22.0527 63.5365,23.703 64.7706,25.4654 C66.7933,23.2892 70.0753,22.0851 72.7921,21.2225 C73.5221,20.9889 73.8395,22.0696 73.1366,22.3453 C70.4108,23.4518 68.1211,25.2886 65.5177,26.5662 C66.6308,28.2519 67.6343,30.0443 68.4841,31.9121 C69.7681,31.9277 71.0362,32.0845 72.3456,31.8813 C74.1415,31.6019 75.8235,30.9436 77.398,30.0452 C77.521,29.9776 77.6321,29.9653 77.7427,29.9891 C78.0409,30.0821 78.2066,30.5228 77.8701,30.7759 C75.6221,32.4191 72.1903,33.8152 69.1794,33.5225 C69.8382,35.1684 70.3691,36.8375 70.7469,38.546 C74.1983,38.1017 78.2569,39.6104 80.8442,41.4032 C81.2865,41.7008 80.7799,42.4092 80.3257,42.1669 C78.5508,41.1707 76.6667,40.4475 74.646,40.1579 C73.4168,39.9878 72.2448,40.0903 71.0674,40.1844 C71.2918,41.5634 71.4134,42.9493 71.4047,44.336 C75.0258,45.7941 78.946,46.7017 82.871,46.3085 C84.0598,46.1952 85.0867,45.9602 86.1508,45.4512 C87.863,44.6186 89.0747,42.7164 88.3524,40.6591 C87.6562,38.7158 84.1762,38.2499 82.489,37.721 C81.7656,37.486 81.7024,36.6696 82.1876,36.2965 C82.2128,36.2802 82.2242,36.2609 82.241,36.2501 C82.3502,36.1795 82.4702,36.1258 82.6258,36.1086 C82.6648,36.0953 82.7063,36.1042 82.7453,36.0909 C85.5124,35.3982 87.4393,32.3552 86.3427,29.5158 C84.9605,25.8845 80.3559,25.7049 77.3681,27.0879 C77.1839,27.1713 77.0199,27.1939 76.854,27.1582 C76.1375,27.0259 75.6897,25.9461 76.2501,25.3577 C81.602,19.8396 74.8325,12.5697 68.7013,16.5318 C68.1133,16.9117 67.5539,16.6541 67.2915,16.1926 C66.8035,16.1746 66.3361,15.6908 66.5943,15.0953 C67.5948,12.8296 68.6084,10.0315 68.2647,7.4913 C67.8011,4.0285 64.8008,2.40735 61.598,3.5127 Z M47.9751,15.9829 C47.9518,16.0575 47.9201,16.1375 47.8747,16.2145 C46.1093,19.2127 46.6538,23.6114 50.0867,25.2387 C53.244,26.7346 56.9107,24.8176 58.3752,21.9067 C55.3673,19.076 51.8498,16.9676 47.9751,15.9829 Z M25.4016,39.4758 C23.7134,39.0189 22.4976,39.6617 20.962,39.9754 C21.166,43.1654 21.9853,46.3863 23.4226,49.4581 C23.4631,49.5391 23.4758,49.6142 23.4941,49.6976 C26.4861,49.3715 29.5875,47.0221 29.3292,43.7481 C29.1656,41.6155 27.3857,40.0034 25.4016,39.4758 Z M66.1705,53.6476 C63.4955,52.364 59.7226,52.016 57.7973,54.7484 C56.2003,57.0305 57.134,59.8204 59.3013,61.1107 C62.2138,59.1691 64.5528,56.598 66.1705,53.6476 Z" id="Shape" fill="#3C3C3B" fill-rule="nonzero"></path>
            <path d="M28.4237,25.4143 C30.876,22.4842 35.5447,22.0628 38.5342,24.4411 C41.5729,26.8589 41.843,31.8278 38.9948,34.5137 C36.4391,36.9153 32.366,36.4161 30.2335,33.8531 C26.5711,32.9575 26.2649,27.988 28.4237,25.4143 Z M37.4758,26.1013 C32.794,22.0068 25.1723,29.1346 31.188,32.4743 C31.4852,32.6394 31.609,32.9047 31.6054,33.1571 C33.5172,34.6601 36.4883,34.6332 38.0818,32.6034 C39.5734,30.7108 39.2839,27.6833 37.4758,26.1013 Z" id="Shape" fill="#3C3C3B" fill-rule="nonzero"></path>
            <path d="M47.8746,16.2145 C47.9201,16.1375 47.9518,16.0575 47.975,15.9829 C51.8498,16.9676 55.3673,19.076 58.3752,21.9067 C56.9106,24.8176 53.244,26.7346 50.0867,25.2387 C46.6538,23.6113 46.1092,19.2127 47.8746,16.2145 Z" id="Path" fill="#F077AB"></path>
            <path d="M31.188,32.4743 C25.1723,29.1346 32.794,22.0068 37.4758,26.1013 C39.2839,27.6833 39.5734,30.7108 38.0818,32.6034 C36.4883,34.6332 33.5172,34.6601 31.6054,33.1571 C31.609,32.9047 31.4852,32.6394 31.188,32.4743 Z" id="Path" fill="#F077AB"></path>
            <path d="M20.962,39.9754 C22.4976,39.6617 23.7134,39.0189 25.4016,39.4758 C27.3856,40.0034 29.1655,41.6155 29.3292,43.7481 C29.5875,47.0221 26.4861,49.3715 23.4941,49.6976 C23.4758,49.6142 23.463,49.5391 23.4226,49.4581 C21.9853,46.3863 21.166,43.1654 20.962,39.9754 Z" id="Path" fill="#F077AB"></path>
            <path d="M45.2059,40.6799 C44.6201,38.3915 47.6861,35.803 49.5766,34.9147 C53.2515,33.1948 57.582,33.5397 59.3031,37.7139 C60.9009,41.5868 58.2715,45.6433 54.3985,46.6696 C50.3279,47.7404 46.6034,44.9799 45.1161,41.3333 C45.017,41.0877 45.0729,40.8611 45.2059,40.6799 Z M57.6548,39.6958 C56.9071,32.4399 45.3462,37.2674 47.3623,41.1795 C47.4999,41.4478 47.4711,41.7164 47.3599,41.9312 C48.6611,43.6501 50.6072,44.8929 52.845,44.7446 C55.3964,44.5842 57.9293,42.4235 57.6548,39.6958 Z" id="Shape" fill="#3C3C3B" fill-rule="nonzero"></path>
            <path d="M47.3623,41.1795 C45.3462,37.2674 56.907,32.4399 57.6548,39.6958 C57.9292,42.4235 55.3964,44.5842 52.845,44.7446 C50.6072,44.8929 48.6611,43.6501 47.3598,41.9312 C47.4711,41.7164 47.4999,41.4478 47.3623,41.1795 Z" id="Path" fill="#F077AB"></path>
            <path d="M37.0004,49.447 C39.5386,47.4973 42.9492,48.3532 44.7918,50.8177 C46.6097,53.2625 46.4412,56.7051 43.8794,58.563 C41.8221,60.0591 37.7632,60.5031 36.212,58.0289 C36.1306,57.9029 36.102,57.7666 36.1149,57.6392 C36.0404,57.6159 35.9772,57.5734 35.9254,57.5117 C33.819,55.0628 34.4653,51.3829 37.0004,49.447 Z M43.4274,52.1518 C42.2417,50.5011 39.9763,49.6671 38.2322,50.9847 C36.4658,52.3047 35.9788,54.9411 36.8829,56.8929 C36.8937,56.9097 36.8907,56.9236 36.8932,56.9458 C36.9707,56.9552 37.0453,56.9785 37.1169,57.0155 C38.9589,57.9683 40.7004,58.5813 42.6213,57.3162 C44.436,56.1078 44.6566,53.8697 43.4274,52.1518 Z" id="Shape" fill="#3C3C3B" fill-rule="nonzero"></path>
            <path d="M38.2322,50.9847 C39.9764,49.6671 42.2417,50.5011 43.4275,52.1518 C44.6567,53.8697 44.436,56.1078 42.6213,57.3162 C40.7004,58.5813 38.9589,57.9683 37.1169,57.0156 C37.0453,56.9785 36.9707,56.9552 36.8932,56.9458 C36.8908,56.9236 36.8937,56.9097 36.8829,56.8929 C35.9788,54.9411 36.4659,52.3047 38.2322,50.9847 Z" id="Path" fill="#F077AB"></path>
            <path d="M57.7973,54.7484 C59.7226,52.016 63.4955,52.364 66.1705,53.6477 C64.5528,56.598 62.2138,59.1691 59.3013,61.1107 C57.134,59.8204 56.2003,57.0305 57.7973,54.7484 Z" id="Path" fill="#F077AB"></path>
        </g>
    </g>
</svg>
