<svg width="113" height="78" viewBox="0 0 113 78" fill="none" xmlns="http://www.w3.org/2000/svg">
<g clip-path="url(#clip0)" filter="url(#filter0_d)">
<path d="M93.1996 8.64919C102.027 9.24246 107.125 21.7976 107.512 29.2157C107.91 36.6079 103.867 45.1982 95.6855 45.1774C95.6051 45.3275 95.4821 45.4515 95.2905 45.5381C83.9312 50.1517 72.3548 54.2168 60.6902 58.0048C49.7564 61.5467 38.7026 65.3833 27.5488 68.1519C19.906 70.0365 12.7834 68.3167 8.96658 60.9547C5.39319 54.0448 6.69871 45.4407 9.92202 38.4759C9.87418 38.355 9.86916 38.2065 9.96816 38.049C10.1324 37.8119 10.3004 37.5841 10.4684 37.3563C10.7396 36.8188 11.0201 36.2776 11.3117 35.7643C11.4388 35.5419 11.7602 35.5115 11.9287 35.6384C15.1215 32.4283 19.4898 30.7211 23.8017 29.1976C30.726 26.7477 37.7385 24.5748 44.7399 22.3741C59.0626 17.8568 73.51 13.7633 87.9738 9.73858C88.3419 9.63594 88.6365 9.80973 88.8083 10.0536C90.0133 9.10357 91.4545 8.53321 93.1996 8.64919ZM105.764 26.9178C104.81 21.1113 98.7112 7.62956 90.9094 10.8246C87.679 12.146 85.9727 16.6391 84.8989 19.7957C83.598 23.6015 84.4073 26.7334 85.7773 30.3855C87.8921 36.0013 90.4551 40.4396 95.2871 43.9262C103.889 43.2429 107.015 34.51 105.764 26.9178ZM85.8495 13.7734C86.3187 12.9209 86.8529 12.0965 87.4776 11.3653C74.313 15.0587 61.1244 18.7185 48.057 22.7391C41.2305 24.8384 34.4739 27.1143 27.7485 29.4962C21.8859 31.5582 16.1756 33.6244 11.5252 37.7985C9.19482 45.851 6.19475 54.2223 11.4272 61.9275C17.7216 71.2021 29.1052 66.0518 37.5862 63.4591C56.5263 57.6738 75.4022 51.6449 93.8186 44.3461C87.6693 41.5529 84.1802 32.4372 82.8667 26.5365C81.8619 22.0408 83.7182 17.6819 85.8495 13.7734Z" fill="#3C3C3B"/>
<path d="M90.9094 10.8246C98.7112 7.62956 104.81 21.1113 105.764 26.9178C107.015 34.51 103.889 43.2429 95.2871 43.9262C90.4551 40.4396 87.8921 36.0013 85.7773 30.3855C84.4072 26.7334 83.598 23.6015 84.8989 19.7957C85.9727 16.6391 87.679 12.146 90.9094 10.8246ZM102.386 25.34C100.931 20.9577 98.6497 13.2355 92.9403 13.0214C92.6803 13.0167 92.4886 13.1571 92.3876 13.3369C92.2466 13.3067 92.0887 13.3154 91.9398 13.4281C85.6173 17.8337 86.6086 25.9913 88.873 32.3653C89.8287 35.0521 90.7989 38.3462 93.5011 39.7935C95.9326 41.1004 98.7399 40.7208 100.715 38.8637C100.793 38.7897 100.82 38.6932 100.824 38.5948C104.995 35.847 103.774 29.5548 102.386 25.34Z" fill="#F077AB"/>
<path d="M92.9403 13.0214C98.6497 13.2355 100.931 20.9577 102.386 25.34C103.774 29.5548 104.995 35.847 100.824 38.5948C100.82 38.6932 100.793 38.7897 100.715 38.8637C98.7399 40.7208 95.9326 41.1004 93.5011 39.7935C90.7989 38.3462 89.8287 35.0521 88.873 32.3653C86.6086 25.9913 85.6173 17.8337 91.9398 13.4281C92.0887 13.3154 92.2466 13.3067 92.3876 13.3369C92.4885 13.1571 92.6803 13.0167 92.9403 13.0214ZM100.558 23.9554C99.1497 20.1787 97.4745 14.6685 92.7709 14.1424C92.7672 14.1331 92.7672 14.1331 92.7579 14.1368C92.7262 14.1923 92.6758 14.2553 92.5994 14.307C87.4749 18.1525 87.6575 24.5653 89.4049 30.1222C90.0858 32.3048 90.8668 35.0392 92.1968 36.9327C93.9499 39.433 96.9683 39.7227 99.5404 38.6402C104.432 35.4568 102.191 28.2992 100.558 23.9554Z" fill="#3C3C3B"/>
<path d="M92.7709 14.1424C97.4746 14.6685 99.1497 20.1787 100.558 23.9554C102.191 28.2992 104.432 35.4568 99.5405 38.6402C96.9683 39.7227 93.95 39.433 92.1969 36.9327C90.8668 35.0392 90.0858 32.3048 89.4049 30.1222C87.6575 24.5653 87.475 18.1525 92.5995 14.307C92.6758 14.2553 92.7262 14.1923 92.758 14.1368C92.7673 14.1331 92.7673 14.1331 92.7709 14.1424Z" fill="#F6F6F6"/>
<path d="M87.4776 11.3653C86.8528 12.0965 86.3187 12.9209 85.8495 13.7734C83.7182 17.6819 81.8619 22.0408 82.8667 26.5365C84.1801 32.4372 87.6693 41.5529 93.8186 44.3461C75.4022 51.6449 56.5262 57.6738 37.5862 63.4591C29.1052 66.0518 17.7216 71.2021 11.4272 61.9275C6.19473 54.2223 9.19481 45.851 11.5252 37.7985C16.1755 33.6244 21.8859 31.5582 27.7485 29.4962C34.4739 27.1143 41.2305 24.8384 48.057 22.7391C61.1244 18.7185 74.313 15.0587 87.4776 11.3653Z" fill="#F077AB"/>
</g>
<defs>
<filter id="filter0_d" x="-4" y="1.90735e-06" width="120.901" height="85.7342" filterUnits="userSpaceOnUse" color-interpolation-filters="sRGB">
<feFlood flood-opacity="0" result="BackgroundImageFix"/>
<feColorMatrix in="SourceAlpha" type="matrix" values="0 0 0 0 0 0 0 0 0 0 0 0 0 0 0 0 0 0 127 0"/>
<feOffset dy="4"/>
<feGaussianBlur stdDeviation="2"/>
<feColorMatrix type="matrix" values="0 0 0 0 0 0 0 0 0 0 0 0 0 0 0 0 0 0 0.25 0"/>
<feBlend mode="normal" in2="BackgroundImageFix" result="effect1_dropShadow"/>
<feBlend mode="normal" in="SourceGraphic" in2="effect1_dropShadow" result="shape"/>
</filter>
<clipPath id="clip0">
<rect width="104.74" height="42.15" fill="white" transform="translate(0 38.5416) rotate(-21.5907)"/>
</clipPath>
</defs>
</svg>
